<svg xmlns="http://www.w3.org/2000/svg" viewBox="0 0 189.91 223.34"><defs><style>.cls-1{fill:#8c4545;}</style></defs><g id="Layer_2" data-name="Layer 2"><g id="Layer_1-2" data-name="Layer 1"><path class="cls-1" d="M.53,52.17c8-1.37,8-1.37,8.68-9.08.54-5.78,2.23-7.94,8-8.21,9.48-.44,19-.33,28.47-.44,1.81,0,3.62,0,5.18,0,1.23-5.52,1.87-10.82,3.61-15.73A28,28,0,0,1,80.85.16C90,.1,99.19.46,108.34,0c15.27-.73,29.41,12.88,29.87,29.36,0,1.45.19,2.91.34,5,7.52,0,14.8,0,22.08,0,3.83,0,7.66,0,11.49.15,5.72.24,8.49,3,9,8.62.7,7.56.7,7.56,8.73,8.91,0,4.48.16,9.08-.14,13.65-.06.91-1.76,2.29-2.85,2.44a39.62,39.62,0,0,1-9,.3c-4.36-.41-5.77,1.16-5.71,5.58.21,16.65.06,33.32.05,50q0,38-.07,76c0,11.4-10.61,23-22,23.09q-54.72.38-109.45,0c-12.71-.09-22.85-11.58-22.86-24.34,0-41.82-.2-83.63-.17-125.45,0-3.71-1.11-5-4.8-5-4.06,0-9.49.73-11.77-1.49-2.05-2-.64-7.54-.73-11.52C.37,54.42.47,53.43.53,52.17Zm33.68,83.47h.52c0,19.82-.26,39.65.11,59.46.2,10.31,2,11.85,12.23,11.87q48.47.14,97-.15c9.28,0,11.38-2.31,11.41-11.69.13-40.15.09-80.3.35-120.44,0-4.81-1.28-6.13-6.11-6.1q-55,.31-110,0c-4.53,0-5.62,1.28-5.58,5.58C34.31,94.66,34.21,115.15,34.21,135.64Zm85.95-101.2c1-10.79-3.78-17.08-12.68-17.25-8.32-.16-16.65-.22-25,0C74.82,17.35,69.6,23,69.27,30.65c-.12,2.85,1,3.88,3.76,3.82,4.82-.12,9.65,0,14.48,0Z"/><path class="cls-1" d="M68.53,188.83H52.76V86.64H68.53Z"/><path class="cls-1" d="M102.92,188.83H86.77V86.56h16.15Z"/><path class="cls-1" d="M137.48,188.89H121.59V86.62h15.89Z"/></g></g></svg>