<svg xmlns="http://www.w3.org/2000/svg" viewBox="0 0 20.68 20.6"><defs><style>.cls-1{fill:#fff;}</style></defs><g id="Layer_2" data-name="Layer 2"><g id="Layer_1-2" data-name="Layer 1"><path class="cls-1" d="M0,13.53a8.44,8.44,0,0,1,.25-1,4.11,4.11,0,0,1,2.28-2.48L2.62,10l0,0A3,3,0,0,1,6.86,5.61,3.07,3.07,0,0,1,7,10a4.39,4.39,0,0,1,1.55,1,2.42,2.42,0,0,1,1.74-.74,2.39,2.39,0,0,1,1.75.74A4.59,4.59,0,0,1,13.65,10a3,3,0,0,1-.79-2.67A2.93,2.93,0,0,1,14,5.5,3,3,0,0,1,18,10c.31.19.63.35.92.56a4.13,4.13,0,0,1,1.72,3.4c0,2,0,4,0,6a.62.62,0,0,1-.7.7q-9.63,0-19.26,0A.72.72,0,0,1,0,20.15Zm19.45,5.85s0-.05,0-.07c0-1.85,0-3.7,0-5.55A3,3,0,0,0,16.88,11a12.6,12.6,0,0,0-1.74,0,2.93,2.93,0,0,0-2.32,1.14.39.39,0,0,0-.08.31,2.48,2.48,0,0,1-.38,1.7,1.4,1.4,0,0,0-.1.16s0,0,.06,0A3,3,0,0,1,14,17.11v2.27Zm-18.24,0H6.7c0-.81,0-1.6,0-2.39A3,3,0,0,1,8.29,14.3l.13-.09A2.46,2.46,0,0,1,8,12.29a.33.33,0,0,0-.07-.21A2.84,2.84,0,0,0,5.94,11a14.72,14.72,0,0,0-1.63,0A3,3,0,0,0,1.21,14v5.36Zm6.71,0h4.84v-.21c0-.79,0-1.57,0-2.36a1.71,1.71,0,0,0-1.5-1.61,7.87,7.87,0,0,0-1.75,0,1.74,1.74,0,0,0-1.57,1.65C7.89,17.66,7.92,18.51,7.92,19.37ZM6.66,7.89a1.82,1.82,0,1,0-1.83,1.8A1.82,1.82,0,0,0,6.66,7.89Zm9.18-1.83A1.82,1.82,0,1,0,17.65,7.9,1.82,1.82,0,0,0,15.84,6.06Zm-5.49,5.45a1.21,1.21,0,1,0,1.2,1.22A1.21,1.21,0,0,0,10.35,11.51Z"/><path class="cls-1" d="M10.34.45A2,2,0,0,1,11.51,0a2,2,0,0,1,2,1.76,2.61,2.61,0,0,1-.38,1.83,7.35,7.35,0,0,1-2,2,5.91,5.91,0,0,1-.52.35A.57.57,0,0,1,10,6,8.31,8.31,0,0,1,7.73,3.9a2.87,2.87,0,0,1-.62-1.83A2.08,2.08,0,0,1,8.83,0,2,2,0,0,1,10.34.45Zm0,4.28c.19-.14.37-.27.54-.42A4.94,4.94,0,0,0,12.2,2.79a1.23,1.23,0,0,0,.11-.92.79.79,0,0,0-.6-.64.78.78,0,0,0-.77.33c0,.06-.07.13-.12.16a1.3,1.3,0,0,1-.41.23.62.62,0,0,1-.64-.33A.74.74,0,0,0,9,1.23a.81.81,0,0,0-.62.7,1.43,1.43,0,0,0,.31,1.19A6.78,6.78,0,0,0,10.34,4.73Z"/></g></g></svg>