<svg xmlns="http://www.w3.org/2000/svg" viewBox="0 0 22.7 21"><defs><style>.cls-1{fill:#fff;}</style></defs><g id="Layer_2" data-name="Layer 2"><g id="Layer_1-2" data-name="Layer 1"><path class="cls-1" d="M2.8,9.14,1.42,10.29a.86.86,0,0,1-1,.09A.86.86,0,0,1,.32,9c.34-.3.69-.58,1-.87l8.33-7L10.78.22a.84.84,0,0,1,1.13,0l6.46,5.4,4,3.34a.84.84,0,0,1,.31.87.79.79,0,0,1-.62.64.83.83,0,0,1-.78-.19l-1.2-1-.17-.13v8.36A3.46,3.46,0,0,1,17,21a4.17,4.17,0,0,1-.61,0H6.11A3.46,3.46,0,0,1,2.83,18a4.84,4.84,0,0,1,0-.53V9.14Zm12,10.14c.56,0,1.11,0,1.66,0a1.76,1.76,0,0,0,1.72-1.77V7.85a.3.3,0,0,0-.12-.24L12,2.52,11.35,2s0,0-.06,0L4.62,7.61a.3.3,0,0,0-.12.25c0,3.23,0,6.46,0,9.69A1.71,1.71,0,0,0,6,19.25c.5.06,1,0,1.52,0h.39V12.7a.85.85,0,0,1,.94-.94h5.06a.85.85,0,0,1,.94.94v6.58Zm-1.72,0v-5.8H9.6v5.8Z"/></g></g></svg>