<svg xmlns="http://www.w3.org/2000/svg" viewBox="0 0 430.6 430.6"><defs><style>.cls-1{fill:#fff;}</style></defs><g id="Layer_2" data-name="Layer 2"><g id="Layer_1-2" data-name="Layer 1"><path class="cls-1" d="M363.18,322.51a178.36,178.36,0,0,0,29-56.76,51.49,51.49,0,0,0,1.4-99.22,178.22,178.22,0,0,0-26.67-56.61,18.84,18.84,0,1,0-30.78,21.74,139.51,139.51,0,0,1,19.13,38.67,51.46,51.46,0,0,0-1.3,90.52,139.18,139.18,0,0,1-20.77,38.85,18.84,18.84,0,1,0,30,22.81Zm-2-95a21.33,21.33,0,1,1,38.54-17,21,21,0,0,1,.7,5.41,21.33,21.33,0,0,1-39.24,11.59ZM170.33,75.35a51.46,51.46,0,0,0,90.52,1.3A139.41,139.41,0,0,1,299.7,97.41a18.84,18.84,0,1,0,22.81-30,178.36,178.36,0,0,0-56.76-29A51.49,51.49,0,0,0,166.53,37,178.56,178.56,0,0,0,109.92,63.7a18.84,18.84,0,1,0,21.74,30.77A139.48,139.48,0,0,1,170.33,75.35Zm33.52-6.3A21.32,21.32,0,0,1,216,30.15a20.8,20.8,0,0,1,5.94.85,21.33,21.33,0,1,1-18,38.05ZM90,325.19a18.84,18.84,0,0,0,4.5-26.26,139.29,139.29,0,0,1-19.12-38.66,51.47,51.47,0,0,0,1.3-90.53A139.35,139.35,0,0,1,97.41,130.9a18.84,18.84,0,1,0-30-22.81,178.42,178.42,0,0,0-29,56.75A51.5,51.5,0,0,0,37,264.07,178.56,178.56,0,0,0,63.7,320.68,18.84,18.84,0,0,0,90,325.19ZM30.84,220.06a21.45,21.45,0,0,1-.69-5.41,20.92,20.92,0,0,1,.85-6,21.32,21.32,0,1,1-.16,11.36ZM264.07,393.58a178.56,178.56,0,0,0,56.61-26.68,18.84,18.84,0,0,0-21.75-30.78,139,139,0,0,1-38.66,19.13,51.47,51.47,0,0,0-90.53-1.3,139.13,139.13,0,0,1-38.84-20.77,18.84,18.84,0,1,0-22.81,30,178.42,178.42,0,0,0,56.75,29,51.5,51.5,0,0,0,99.23,1.41Zm-55.37,6a21.34,21.34,0,1,1,11.36.15,21,21,0,0,1-5.41.7A21.28,21.28,0,0,1,208.7,399.6Z"/><path class="cls-1" d="M214.11,156a61.12,61.12,0,1,0,61.11,61.11A61.18,61.18,0,0,0,214.11,156Z"/></g></g></svg>