<svg xmlns="http://www.w3.org/2000/svg" viewBox="0 0 21 19.09"><defs><style>.cls-1{fill:#fff;}</style></defs><g id="Layer_2" data-name="Layer 2"><g id="Layer_1-2" data-name="Layer 1"><path d="M14.85,7.74H6.41A1.7,1.7,0,0,0,5,8.41a1.7,1.7,0,0,0-.23,1.91,1.73,1.73,0,0,0,1.66,1h8.37l0,.05a.71.71,0,0,0-.14.1L12,14.22a1.8,1.8,0,1,0,2.55,2.55l5.9-5.9a1.79,1.79,0,0,0,0-2.63c-2-2-3.95-4-5.93-5.94A1.8,1.8,0,1,0,12,4.85l.49.5ZM2,9.59H2V4c0-.25,0-.5,0-.74A1.21,1.21,0,0,1,3.07,2c.41,0,.82,0,1.23,0a6.17,6.17,0,0,0,.86,0,.93.93,0,0,0,.74-1A.91.91,0,0,0,5,0a10.53,10.53,0,0,0-2.38.1A3,3,0,0,0,1,.87,3.52,3.52,0,0,0,0,3.38V15.72a4.39,4.39,0,0,0,.07.72,3.31,3.31,0,0,0,2.81,2.62c.71,0,1.43,0,2.14,0a.92.92,0,0,0,.88-1,.94.94,0,0,0-1-.93l-.67,0A4.07,4.07,0,0,1,2.86,17,1.12,1.12,0,0,1,2,16a3.39,3.39,0,0,1,0-.45C2,13.58,2,11.59,2,9.59Z"/><path class="cls-1" d="M14.85,7.74l-2.4-2.39L12,4.85A1.8,1.8,0,1,1,14.5,2.3c2,2,4,4,5.93,5.94a1.79,1.79,0,0,1,0,2.63l-5.9,5.9A1.8,1.8,0,1,1,12,14.22L14.7,11.5a.71.71,0,0,1,.14-.1l0-.05H6.44a1.73,1.73,0,0,1-1.66-1A1.7,1.7,0,0,1,5,8.41a1.7,1.7,0,0,1,1.4-.67h8.44Z"/><path class="cls-1" d="M2,9.59c0,2,0,4,0,6A3.39,3.39,0,0,0,2,16a1.12,1.12,0,0,0,.86,1,4.07,4.07,0,0,0,1.39.11l.67,0a.94.94,0,0,1,1,.93.92.92,0,0,1-.88,1c-.71,0-1.43,0-2.14,0A3.31,3.31,0,0,1,.07,16.44,4.39,4.39,0,0,1,0,15.72V3.38A3.52,3.52,0,0,1,1,.87,3,3,0,0,1,2.62.12,10.53,10.53,0,0,1,5,0a.91.91,0,0,1,.9.91.93.93,0,0,1-.74,1A6.17,6.17,0,0,1,4.3,2c-.41,0-.82,0-1.23,0A1.21,1.21,0,0,0,2,3.28C2,3.52,2,3.77,2,4V9.59Z"/></g></g></svg>