<svg xmlns="http://www.w3.org/2000/svg" xmlns:xlink="http://www.w3.org/1999/xlink" viewBox="0 0 910.97 430.6"><defs><style>.cls-1{fill:url(#linear-gradient);}.cls-2{fill:#17293a;}</style><linearGradient id="linear-gradient" y1="215.3" x2="430.6" y2="215.3" gradientUnits="userSpaceOnUse"><stop offset="0" stop-color="#ffa03e"/><stop offset="0.25" stop-color="#fe8b4c"/><stop offset="1" stop-color="#fd4e74"/></linearGradient></defs><g id="Layer_2" data-name="Layer 2"><g id="Layer_1-2" data-name="Layer 1"><path class="cls-1" d="M322.51,67.42a178.36,178.36,0,0,0-56.76-29A51.49,51.49,0,0,0,166.53,37,178.46,178.46,0,0,0,109.92,63.7a18.84,18.84,0,1,0,21.74,30.77,139.48,139.48,0,0,1,38.67-19.12,51.46,51.46,0,0,0,90.52,1.3A139.41,139.41,0,0,1,299.7,97.41a18.84,18.84,0,1,0,22.81-30ZM75.35,260.27a51.47,51.47,0,0,0,1.3-90.53A139.35,139.35,0,0,1,97.41,130.9a18.84,18.84,0,1,0-30-22.81,178.42,178.42,0,0,0-29,56.75A51.5,51.5,0,0,0,37,264.07,178.56,178.56,0,0,0,63.7,320.68a18.84,18.84,0,1,0,30.77-21.75A139.29,139.29,0,0,1,75.35,260.27Zm249.84,80.36a18.85,18.85,0,0,0-26.26-4.51,139.32,139.32,0,0,1-38.66,19.13,51.47,51.47,0,0,0-90.53-1.3,139.13,139.13,0,0,1-38.84-20.77,18.84,18.84,0,1,0-22.81,30,178.42,178.42,0,0,0,56.75,29,51.49,51.49,0,0,0,99.23,1.4,178.32,178.32,0,0,0,56.61-26.67A18.85,18.85,0,0,0,325.19,340.63Zm68.39-174.1a178.56,178.56,0,0,0-26.68-56.61,18.84,18.84,0,1,0-30.78,21.74,139.24,139.24,0,0,1,19.13,38.67,51.46,51.46,0,0,0-1.3,90.52,139.18,139.18,0,0,1-20.77,38.85,18.84,18.84,0,1,0,30,22.81,178.36,178.36,0,0,0,29-56.76,51.49,51.49,0,0,0,1.41-99.22Z"/><path class="cls-2" d="M214.86,286.48A70.11,70.11,0,1,1,285,216.37,70.19,70.19,0,0,1,214.86,286.48Zm0-122.22A52.11,52.11,0,1,0,267,216.37,52.17,52.17,0,0,0,214.86,164.26Z"/><circle class="cls-2" cx="196.08" cy="204.37" r="7.54"/><circle class="cls-2" cx="234.52" cy="204.37" r="7.54"/><path class="cls-2" d="M216.24,242.8a26.77,26.77,0,0,1-19.08-7.9,4,4,0,0,1,5.65-5.66,19,19,0,0,0,26.86,0,4,4,0,0,1,5.66,5.66A26.81,26.81,0,0,1,216.24,242.8Z"/><path class="cls-2" d="M534.71,219.19q0,3.6.42,10.69c.28,4.73.42,8.27.42,10.64,0,1.24-.54,1.91-1.63,2q-5.79.42-13.25.42c-.6,0-1-.89-1.19-2.68s-.45-2.7-.73-2.73a4.68,4.68,0,0,0-1,.79q-5.22,5.28-11.2,5.28a18.78,18.78,0,0,1-15.07-7.19,24.17,24.17,0,0,1-5.65-16q0-10.79,5.84-17.36,6.06-6.81,16.61-6.81a14.22,14.22,0,0,1,11.57,5.13c.13.16.24.23.33.23.28,0,.6-.75,1-2.26s.78-2.26,1.28-2.26a40.3,40.3,0,0,1,6.58,1q4.62.93,6.63,1.58c.46.19.7.44.7.75a9.45,9.45,0,0,1-.14,1A102.15,102.15,0,0,0,534.71,219.19Zm-15,.28a9.07,9.07,0,0,0-2.5-6.55,9.49,9.49,0,0,0-13,0,9.68,9.68,0,0,0,.14,13.07,8.53,8.53,0,0,0,6.35,2.71,8.69,8.69,0,0,0,6.49-2.59A9.09,9.09,0,0,0,519.69,219.47Z"/><path class="cls-2" d="M561,214.43q0,12.75.1,19.55c0,.72,0,2,.14,3.69s.14,2.82.14,3.69c0,.65-.39,1-1.17,1.16a50.25,50.25,0,0,1-7.56.38,40,40,0,0,1-7.14-.38,1.39,1.39,0,0,1-1.17-1.26v-2q0-4.15.1-12.44t.09-12.39q0-19.59,0-17.87a147.71,147.71,0,0,0-1.17-17.78,5,5,0,0,1-.09-.79c0-.69.4-1,1.21-1h16.66c.78,0,1.14.33,1.07,1l0,.84Q561,198.94,561,214.43Z"/><path class="cls-2" d="M586.51,214.43q0,12.75.09,19.55c0,.72,0,2,.14,3.69s.14,2.82.14,3.69c0,.65-.39,1-1.16,1.16a50.25,50.25,0,0,1-7.56.38,39.84,39.84,0,0,1-7.14-.38,1.37,1.37,0,0,1-1.17-1.26v-2q0-4.15.09-12.44t.1-12.39q0-19.59,0-17.87a147.91,147.91,0,0,0-1.16-17.78,4.19,4.19,0,0,1-.1-.79c0-.69.41-1,1.22-1H586.7c.77,0,1.13.33,1.07,1l0,.84Q586.5,198.94,586.51,214.43Z"/><path class="cls-2" d="M647.64,212.43c0,.74-.41,1.12-1.21,1.12-3.36,0-6-.1-7.94-.28q.15,3.49.28,9.75,0,2.65.42,9.24.33,5.93.33,9.24c0,.65-.44,1-1.31,1.12q-1.59.18-7.93.18a50.33,50.33,0,0,1-6.86-.28,1.74,1.74,0,0,1-1.59-1.91V214.9q0-1.35-1.86-1.35c-.22,0-.57,0-1.05,0l-1,0c-.87,0-1.33-.25-1.36-.75q-.42-4-.42-11.8a2,2,0,0,1,1.78-2.1c1-.1,2.13-.17,3.22-.24q-.24-3.74-.24-5.83,0-8,3.13-11.67,6.21-7.23,20.07-7.23c.62,0,1,.19,1.12.56q.36,2.1,1.07,6.21c0,.25.23,1.12.61,2.61a12.19,12.19,0,0,1,.42,2.66c0,.75-1.11,1.23-3.32,1.45-2.55.28-4.12.74-4.71,1.4q-1.54,1.68-1.54,6.58a17.63,17.63,0,0,0,.23,2.89c.87,0,2.23,0,4.06-.09s3.22-.1,4.16-.1,1.4.35,1.4,1q0,2.19,0,6.6T647.64,212.43Z"/><path class="cls-2" d="M697.57,219.57q0,10.63-6.51,17.26T674,243.46q-10.28,0-16.89-6.54t-6.63-16.79q0-10.83,6.35-17.57T674,195.81q10.54,0,17.08,6.61T697.57,219.57Zm-15.31,0a10.06,10.06,0,0,0-2.28-6.51,7.27,7.27,0,0,0-5.93-2.83,7.49,7.49,0,0,0-6.06,2.9,10.4,10.4,0,0,0,0,12.92,7.74,7.74,0,0,0,12.08,0A10,10,0,0,0,682.26,219.57Z"/><path class="cls-2" d="M734.15,213.45c0,1.22-.66,1.82-2,1.82-.59,0-1.46,0-2.59-.11s-2-.12-2.54-.12c-2.59,0-4.34.4-5.28,1.21s-1.4,2.44-1.4,4.9c0,1.34,0,3.37.07,6.09s.07,4.75.07,6.09c0,.9.06,2.25.19,4s.19,3.12.19,4-.52,1.16-1.54,1.26c-1.5.12-3.78.18-6.86.18a70.16,70.16,0,0,1-7.1-.28c-1-.12-1.54-.63-1.54-1.54,0-2.48,0-6.21,0-11.17s0-8.69,0-11.18a67.7,67.7,0,0,0-2-18.06,3.43,3.43,0,0,1-.09-.7.92.92,0,0,1,.7-.93q2.57-.28,7.51-1,7.37-1.44,7.61-1.44c.56,0,.91,1,1.07,2.94s.43,2.94.84,2.94q-.66,0,3.83-2.45a17.88,17.88,0,0,1,8.63-2.45c1.74,0,2.61.37,2.61,1.12a35.53,35.53,0,0,1-.28,3.82c-.19,1.78-.29,3.05-.32,3.83s0,2.1,0,3.59C734.12,211.65,734.15,212.86,734.15,213.45Z"/><path class="cls-2" d="M808.4,219.57q0,10.63-6.51,17.26t-17.1,6.63q-10.27,0-16.9-6.54t-6.62-16.79q0-10.83,6.34-17.57t17.18-6.75q10.55,0,17.07,6.61T808.4,219.57Zm-15.31,0a10.06,10.06,0,0,0-2.28-6.51,7.27,7.27,0,0,0-5.93-2.83,7.52,7.52,0,0,0-6.07,2.9,10.44,10.44,0,0,0,0,12.92,7.75,7.75,0,0,0,12.09,0A10,10,0,0,0,793.09,219.57Z"/><path class="cls-2" d="M860.43,241.17a1.34,1.34,0,0,1-1.31,1.45q-1.3.18-6.81.18a52.65,52.65,0,0,1-7.28-.28,1.69,1.69,0,0,1-1.4-1.91q0-2.19.14-6.63t.14-6.67c0-1.15,0-2.87-.09-5.15s-.1-4-.1-5.16q0-6.39-5.55-6.39a8.18,8.18,0,0,0-4.25,1.58c-1.74,1.19-2.61,2.35-2.61,3.5v25.2a1.53,1.53,0,0,1-1.45,1.73q-1.64.18-6.67.18a53.67,53.67,0,0,1-7.09-.28c-1-.15-1.45-.66-1.45-1.54,0-2.42,0-6.08.05-11s0-8.56,0-11q0-11.62-1.82-18.25a3.43,3.43,0,0,1-.09-.7,1,1,0,0,1,.7-1c2-.21,4.57-.56,7.84-1q7.43-1.45,8.35-1.45c.35,0,.61,1.05.8,3.15s.45,3.15.79,3.15q-.51,0,5-3.24t9.68-3.25a16.76,16.76,0,0,1,9.89,2.8,10.46,10.46,0,0,1,4.44,9V223c0,2,0,5,0,9.07S860.43,239.15,860.43,241.17Z"/><path class="cls-2" d="M911,217.19c0,3.14-1,4.93-3,5.36-.34.06-3.56.41-9.66,1q-5.5.6-16.42,1.45a6.57,6.57,0,0,0,4,4.61A13.9,13.9,0,0,0,892,231a17.57,17.57,0,0,0,8.36-2.24l3.54-2.24c.66.31,1.75,1.9,3.29,4.76s2.31,4.68,2.31,5.46c0,.22-.23.58-.7,1.07q-5.68,6.12-17.68,6.12-11.12,0-17.92-6.49-7-6.58-7-17.59,0-10.74,6.25-17.59,6.44-7.1,17.08-7.1a20.26,20.26,0,0,1,15.21,6.54A21.69,21.69,0,0,1,911,217.19Zm-16.34-2.85a7.23,7.23,0,0,0-2-5.09,6.49,6.49,0,0,0-4.9-2.19,5.87,5.87,0,0,0-4.85,2.47,8.49,8.49,0,0,0-1.78,5.37c0,.84.44,1.26,1.31,1.26a82.75,82.75,0,0,0,10.73-1.07C894.12,214.93,894.63,214.68,894.63,214.34Z"/></g></g></svg>