<svg xmlns="http://www.w3.org/2000/svg" xmlns:xlink="http://www.w3.org/1999/xlink" viewBox="0 0 447.99 531.26"><defs><style>.cls-1{fill:url(#linear-gradient);}.cls-2{fill:#17293a;}</style><linearGradient id="linear-gradient" x1="8.7" y1="215.3" x2="439.29" y2="215.3" gradientUnits="userSpaceOnUse"><stop offset="0" stop-color="#ffa03e"/><stop offset="0.25" stop-color="#fe8b4c"/><stop offset="1" stop-color="#fd4e74"/></linearGradient></defs><g id="Layer_2" data-name="Layer 2"><g id="Layer_1-2" data-name="Layer 1"><path class="cls-1" d="M371.87,322.51a178.39,178.39,0,0,0,29-56.76,51.49,51.49,0,0,0,1.4-99.22,178.24,178.24,0,0,0-26.68-56.61,18.84,18.84,0,1,0-30.77,21.74,139.48,139.48,0,0,1,19.12,38.67,51.47,51.47,0,0,0-1.29,90.52,139.7,139.7,0,0,1-20.77,38.85,18.84,18.84,0,1,0,30,22.81Zm-2-95A21.34,21.34,0,1,1,409.14,216a20.8,20.8,0,0,1-.85,5.94,21.32,21.32,0,0,1-38.39,5.65ZM179,75.35a51.46,51.46,0,0,0,90.52,1.3,139.35,139.35,0,0,1,38.84,20.76,18.84,18.84,0,1,0,22.82-30,178.57,178.57,0,0,0-56.76-29A51.49,51.49,0,0,0,175.23,37,178.71,178.71,0,0,0,118.61,63.7a18.84,18.84,0,1,0,21.75,30.77A139.21,139.21,0,0,1,179,75.35Zm33.52-6.3a21.32,21.32,0,0,1,12.09-38.9,20.82,20.82,0,0,1,6,.85,21.33,21.33,0,1,1-18,38.05ZM98.66,325.19a18.83,18.83,0,0,0,4.51-26.26,139.29,139.29,0,0,1-19.12-38.66,51.48,51.48,0,0,0,1.29-90.53,139.39,139.39,0,0,1,20.77-38.84,18.84,18.84,0,1,0-30-22.81,178.44,178.44,0,0,0-29,56.75,51.5,51.5,0,0,0-1.4,99.23,178.53,178.53,0,0,0,26.67,56.61A18.85,18.85,0,0,0,98.66,325.19ZM39.54,220.06a21.45,21.45,0,0,1-.69-5.41,20.92,20.92,0,0,1,.85-6,21.32,21.32,0,1,1-.16,11.36ZM272.76,393.58a178.71,178.71,0,0,0,56.62-26.68,18.84,18.84,0,0,0-21.75-30.78A139,139,0,0,1,269,355.25a51.46,51.46,0,0,0-90.52-1.3,139.13,139.13,0,0,1-38.84-20.77,18.85,18.85,0,1,0-22.82,30,178.57,178.57,0,0,0,56.76,29,51.49,51.49,0,0,0,99.22,1.41Zm-55.36,6a21.33,21.33,0,1,1,11.35.15,20.93,20.93,0,0,1-5.4.7A21.18,21.18,0,0,1,217.4,399.6Z"/><path class="cls-2" d="M224,287.24a70.12,70.12,0,1,1,70.12-70.12A70.2,70.2,0,0,1,224,287.24ZM224,165a52.12,52.12,0,1,0,52.12,52.11A52.17,52.17,0,0,0,224,165Z"/><path class="cls-2" d="M212.31,205.12a7.54,7.54,0,1,1-7.54-7.53A7.53,7.53,0,0,1,212.31,205.12Zm30.91-7.53a7.54,7.54,0,1,0,7.53,7.53A7.53,7.53,0,0,0,243.22,197.59Zm.64,37.9a3.77,3.77,0,0,0-5.33-5.33,19.22,19.22,0,0,1-27.18,0,3.77,3.77,0,1,0-5.33,5.33,26.75,26.75,0,0,0,37.84,0Z"/><path class="cls-2" d="M51.49,505.24c0,2.53.14,6.28.44,11.27s.44,8.72.44,11.21c0,1.31-.57,2-1.72,2.11q-6.09.45-14,.44-.94,0-1.26-2.82c-.21-1.89-.47-2.85-.76-2.88a4.37,4.37,0,0,0-1,.84Q28.12,531,21.83,531A19.78,19.78,0,0,1,6,523.39,25.43,25.43,0,0,1,0,506.47q0-11.36,6.15-18.29Q12.54,481,23.65,481q7.73,0,12.2,5.41c.13.16.24.25.34.25.3,0,.63-.8,1-2.39s.83-2.38,1.35-2.38a42.86,42.86,0,0,1,6.94,1,71.57,71.57,0,0,1,7,1.67c.49.2.74.46.74.79a8.79,8.79,0,0,1-.15,1A108,108,0,0,0,51.49,505.24Zm-15.84.3A9.52,9.52,0,0,0,33,498.63a9.09,9.09,0,0,0-6.86-2.73,9,9,0,0,0-6.83,2.71,10.18,10.18,0,0,0,.14,13.77,9,9,0,0,0,6.69,2.85A9.12,9.12,0,0,0,33,512.5,9.57,9.57,0,0,0,35.65,505.54Z"/><path class="cls-2" d="M79.17,500.23q0,13.42.1,20.6c0,.76,0,2,.15,3.89.1,1.67.15,3,.15,3.88q0,1-1.23,1.23a53.51,53.51,0,0,1-8,.4,42.42,42.42,0,0,1-7.52-.4,1.44,1.44,0,0,1-1.23-1.33v-2.11q0-4.38.09-13.1t.1-13.06q0-20.66,0-18.84a155.83,155.83,0,0,0-1.23-18.73,5.47,5.47,0,0,1-.09-.84c0-.72.42-1.08,1.27-1.08H79.37c.82,0,1.2.34,1.13,1l0,.89Q79.17,483.9,79.17,500.23Z"/><path class="cls-2" d="M106.07,500.23q0,13.42.1,20.6c0,.76,0,2,.15,3.89.1,1.67.15,3,.15,3.88,0,.69-.42,1.1-1.23,1.23a53.51,53.51,0,0,1-8,.4,42.42,42.42,0,0,1-7.52-.4,1.44,1.44,0,0,1-1.23-1.33v-2.11q0-4.38.09-13.1t.1-13.06q0-20.66.05-18.84a155.83,155.83,0,0,0-1.23-18.73,5.75,5.75,0,0,1-.1-.84c0-.72.43-1.08,1.28-1.08h17.56c.82,0,1.19.34,1.13,1l-.05.89Q106.08,483.9,106.07,500.23Z"/><path class="cls-2" d="M170.49,498.11c0,.79-.42,1.18-1.28,1.18-3.54,0-6.32-.09-8.36-.29.1,2.46.2,5.88.3,10.28q0,2.81.44,9.73c.23,4.17.35,7.41.35,9.74,0,.69-.46,1.08-1.38,1.18-1.12.13-3.9.2-8.36.2a52.72,52.72,0,0,1-7.23-.3,1.83,1.83,0,0,1-1.67-2v-27.1c0-1-.66-1.43-2-1.43-.23,0-.6,0-1.11,0s-.87.05-1.1.05c-.92,0-1.4-.26-1.43-.78-.29-2.86-.44-7-.44-12.45a2.08,2.08,0,0,1,1.87-2.21q1.66-.15,3.39-.24-.24-3.94-.24-6.15,0-8.46,3.29-12.29,6.54-7.63,21.15-7.63c.65,0,1,.2,1.18.59q.39,2.22,1.13,6.54c0,.27.24,1.18.64,2.76a13,13,0,0,1,.44,2.8c0,.79-1.17,1.3-3.49,1.52q-4,.45-5,1.48Q160,475.1,160,480.26a18.31,18.31,0,0,0,.24,3.05c.92,0,2.35,0,4.28-.1s3.4-.09,4.38-.09,1.47.36,1.47,1.08q0,2.31.05,7C170.48,494.25,170.49,496.57,170.49,498.11Z"/><path class="cls-2" d="M223.11,505.64q0,11.21-6.86,18.19t-18,7q-10.83,0-17.8-6.89t-7-17.7q0-11.42,6.69-18.52t18.1-7.1q11.11,0,18,7T223.11,505.64Zm-16.13,0a10.56,10.56,0,0,0-2.41-6.86,7.66,7.66,0,0,0-6.24-3,7.94,7.94,0,0,0-6.4,3.05,11,11,0,0,0,0,13.62,8.18,8.18,0,0,0,12.74,0A10.51,10.51,0,0,0,207,505.64Z"/><path class="cls-2" d="M261.66,499.2c0,1.27-.7,1.91-2.11,1.91q-.93,0-2.73-.12c-1.2-.08-2.09-.12-2.68-.12-2.72,0-4.57.42-5.56,1.28s-1.47,2.57-1.47,5.16q0,2.12.07,6.42t.07,6.42c0,1,.07,2.36.2,4.25s.2,3.29.2,4.2-.54,1.23-1.62,1.33q-2.37.2-7.23.2a73.63,73.63,0,0,1-7.48-.3q-1.62-.2-1.62-1.62c0-2.62,0-6.55.05-11.78s.05-9.15.05-11.78q0-11.55-2.12-19a3.91,3.91,0,0,1-.1-.73,1,1,0,0,1,.74-1q2.7-.28,7.92-1.08c5.18-1,7.85-1.52,8-1.52q.88,0,1.14,3.09c.16,2.07.45,3.1.88,3.1-.46,0,.89-.86,4-2.58a19,19,0,0,1,9.1-2.58c1.84,0,2.76.39,2.76,1.18a37.83,37.83,0,0,1-.3,4c-.2,1.87-.31,3.21-.34,4s0,2.22,0,3.79C261.63,497.3,261.66,498.57,261.66,499.2Z"/><path class="cls-2" d="M339.9,505.64q0,11.21-6.86,18.19t-18,7q-10.81,0-17.8-6.89t-7-17.7q0-11.42,6.69-18.52t18.1-7.1q11.12,0,18,7T339.9,505.64Zm-16.13,0a10.56,10.56,0,0,0-2.41-6.86,7.64,7.64,0,0,0-6.24-3,8,8,0,0,0-6.4,3.05,11,11,0,0,0,0,13.62,8.18,8.18,0,0,0,12.74,0A10.51,10.51,0,0,0,323.77,505.64Z"/><path class="cls-2" d="M394.73,528.41a1.41,1.41,0,0,1-1.37,1.52c-.92.13-3.32.2-7.18.2a55.35,55.35,0,0,1-7.68-.3,1.78,1.78,0,0,1-1.47-2q0-2.31.15-7c.1-3.11.14-5.45.14-7q0-1.81-.09-5.43c-.07-2.41-.1-4.22-.1-5.44q0-6.74-5.85-6.73a8.49,8.49,0,0,0-4.48,1.67c-1.84,1.24-2.75,2.47-2.75,3.69v26.55a1.61,1.61,0,0,1-1.53,1.82q-1.72.2-7,.2a56.12,56.12,0,0,1-7.47-.3q-1.53-.24-1.53-1.62,0-3.84.05-11.56t0-11.6q0-12.26-1.92-19.23a3.89,3.89,0,0,1-.1-.74,1.09,1.09,0,0,1,.74-1.08q3.1-.35,8.26-1.08c5.22-1,8.15-1.53,8.81-1.53.36,0,.63,1.11.83,3.32s.48,3.32.84,3.32q-.54,0,5.28-3.41t10.21-3.42A17.59,17.59,0,0,1,390,484.15a11,11,0,0,1,4.67,9.44v15.69q0,3.2.05,9.56C394.72,523.09,394.73,526.28,394.73,528.41Z"/><path class="cls-2" d="M448,503.13q0,5-3.2,5.66-.54.09-10.18,1.08-5.79.63-17.31,1.52a7,7,0,0,0,4.18,4.87,14.73,14.73,0,0,0,6.49,1.38,18.64,18.64,0,0,0,8.81-2.36l3.73-2.36c.69.32,1.85,2,3.47,5s2.44,4.94,2.44,5.76c0,.23-.25.6-.74,1.13q-6,6.43-18.64,6.44-11.7,0-18.88-6.84-7.38-6.93-7.38-18.54,0-11.31,6.59-18.54,6.78-7.47,18-7.47a21.39,21.39,0,0,1,16,6.88A22.89,22.89,0,0,1,448,503.13Zm-17.21-3a7.58,7.58,0,0,0-2.17-5.36,6.82,6.82,0,0,0-5.16-2.31,6.2,6.2,0,0,0-5.11,2.61,8.92,8.92,0,0,0-1.87,5.65,1.19,1.19,0,0,0,1.37,1.33,87.18,87.18,0,0,0,11.32-1.13C430.24,500.75,430.78,500.49,430.78,500.13Z"/></g></g></svg>