<svg xmlns="http://www.w3.org/2000/svg" xmlns:xlink="http://www.w3.org/1999/xlink" viewBox="0 0 1001 319.27"><defs><style>.cls-1{fill:url(#linear-gradient);}.cls-2{fill:#fff;}.cls-3{fill:#17293a;}</style><linearGradient id="linear-gradient" y1="159.63" x2="319.27" y2="159.63" gradientUnits="userSpaceOnUse"><stop offset="0" stop-color="#ffa03e"/><stop offset="0.25" stop-color="#fe8b4c"/><stop offset="1" stop-color="#fd4e74"/></linearGradient></defs><g id="Layer_2" data-name="Layer 2"><g id="Layer_1-2" data-name="Layer 1"><path class="cls-1" d="M239.13,50a132.48,132.48,0,0,0-42.08-21.5,38.18,38.18,0,0,0-73.57-1,132.39,132.39,0,0,0-42,19.78A14,14,0,1,0,97.62,70.05a103.34,103.34,0,0,1,28.67-14.18,38.16,38.16,0,0,0,67.12,1,103.3,103.3,0,0,1,28.8,15.4A14,14,0,0,0,239.13,50ZM55.87,193a38.16,38.16,0,0,0,1-67.12,103.3,103.3,0,0,1,15.4-28.8A14,14,0,0,0,50,80.14a132.48,132.48,0,0,0-21.5,42.08,38.18,38.18,0,0,0-1,73.57,132.39,132.39,0,0,0,19.78,42,14,14,0,1,0,22.82-16.12A103.34,103.34,0,0,1,55.87,193Zm185.25,59.58a14,14,0,0,0-19.47-3.34A103.34,103.34,0,0,1,193,263.4a38.16,38.16,0,0,0-67.12-1A103.3,103.3,0,0,1,97.06,247a14,14,0,0,0-16.92,22.24,132.48,132.48,0,0,0,42.08,21.5,38.18,38.18,0,0,0,73.57,1,132.39,132.39,0,0,0,42-19.78A14,14,0,0,0,241.12,252.56Zm50.7-129.08A132.39,132.39,0,0,0,272,81.5a14,14,0,1,0-22.82,16.12,103.34,103.34,0,0,1,14.18,28.67,38.16,38.16,0,0,0-1,67.12,103.3,103.3,0,0,1-15.4,28.8,14,14,0,0,0,22.24,16.92,132.48,132.48,0,0,0,21.5-42.08,38.18,38.18,0,0,0,1-73.57Z"/><path class="cls-2" d="M159.31,115.12a45.31,45.31,0,1,0,45.31,45.31A45.36,45.36,0,0,0,159.31,115.12Z"/><circle class="cls-3" cx="145.39" cy="151.57" r="5.59"/><circle class="cls-3" cx="173.88" cy="151.57" r="5.59"/><path class="cls-3" d="M160.33,180.79a20.71,20.71,0,0,1-14.67-6.06,3.71,3.71,0,0,1,5.24-5.24,13.35,13.35,0,0,0,18.86,0,3.71,3.71,0,0,1,5.24,5.24A20.67,20.67,0,0,1,160.33,180.79Z"/><path class="cls-2" d="M446.48,168.44q0,5.3.62,15.74t.62,15.68c0,1.84-.81,2.82-2.41,3q-8.54.63-19.53.62c-.87,0-1.46-1.32-1.76-3.95s-.65-4-1.06-4a6.76,6.76,0,0,0-1.45,1.17q-7.69,7.78-16.5,7.77-13.41,0-22.22-10.59a35.6,35.6,0,0,1-8.32-23.66q0-15.89,8.6-25.58,8.94-10,24.48-10,10.8,0,17.06,7.57c.18.23.34.34.48.34.41,0,.88-1.11,1.41-3.34s1.16-3.33,1.89-3.33a60.58,60.58,0,0,1,9.7,1.44,99,99,0,0,1,9.76,2.34c.69.28,1,.64,1,1.1a12,12,0,0,1-.21,1.45A150.79,150.79,0,0,0,446.48,168.44Zm-22.15.41a13.31,13.31,0,0,0-3.68-9.66,14,14,0,0,0-19.15,0,14.25,14.25,0,0,0,.21,19.26,12.49,12.49,0,0,0,9.35,4,12.78,12.78,0,0,0,9.56-3.82A13.39,13.39,0,0,0,424.33,168.85Z"/><path class="cls-2" d="M485.2,161.42q0,18.78.13,28.82,0,1.57.21,5.43.21,3.51.21,5.43c0,1-.58,1.54-1.72,1.72a74.23,74.23,0,0,1-11.14.55c-5.51,0-9-.18-10.53-.55a2.06,2.06,0,0,1-1.72-1.85v-3q0-6.12.14-18.33t.14-18.26q0-28.89.07-26.34a217.4,217.4,0,0,0-1.72-26.2,7.43,7.43,0,0,1-.14-1.17c0-1,.6-1.51,1.79-1.51h24.55c1.15,0,1.68.48,1.58,1.44l-.06,1.24Q485.19,138.6,485.2,161.42Z"/><path class="cls-2" d="M522.82,161.42q0,18.78.13,28.82,0,1.57.21,5.43.21,3.51.21,5.43c0,1-.58,1.54-1.72,1.72a74.32,74.32,0,0,1-11.14.55c-5.51,0-9-.18-10.53-.55a2,2,0,0,1-1.72-1.85v-3q0-6.12.14-18.33t.14-18.26q0-28.89.07-26.34a217.4,217.4,0,0,0-1.72-26.2,7.43,7.43,0,0,1-.14-1.17c0-1,.6-1.51,1.79-1.51h24.55c1.15,0,1.67.48,1.58,1.44l-.07,1.24Q522.81,138.6,522.82,161.42Z"/><path class="cls-2" d="M612.91,158.46c0,1.1-.6,1.65-1.79,1.65q-7.43,0-11.69-.41.21,5.16.41,14.37.07,3.93.62,13.62.48,8.73.48,13.62,0,1.44-1.92,1.65c-1.56.18-5.46.28-11.69.28a73.59,73.59,0,0,1-10.11-.42,2.56,2.56,0,0,1-2.34-2.82V162.11c0-1.33-.92-2-2.75-2-.32,0-.84,0-1.55.07s-1.23.07-1.55.07c-1.28,0-1.95-.36-2-1.1q-.63-6-.62-17.4a2.9,2.9,0,0,1,2.61-3.09c1.56-.14,3.14-.25,4.75-.35-.23-3.66-.35-6.53-.35-8.59q0-11.84,4.61-17.2,9.15-10.65,29.57-10.66c.92,0,1.47.28,1.65.83q.56,3.09,1.59,9.14c0,.37.34,1.66.89,3.86a18.05,18.05,0,0,1,.62,3.92q0,1.65-4.88,2.13-5.64.62-7,2.06c-1.51,1.65-2.27,4.89-2.27,9.7a24,24,0,0,0,.35,4.26q1.92,0,6-.13c2.7-.1,4.74-.14,6.12-.14s2.06.5,2.06,1.51q0,3.24.07,9.73C612.89,153.06,612.91,156.31,612.91,158.46Z"/><path class="cls-2" d="M686.5,169q0,15.67-9.6,25.44t-25.2,9.77q-15.13,0-24.9-9.63T617,169.81q0-16,9.35-25.89T651.7,134q15.54,0,25.17,9.73T686.5,169Zm-22.56,0a14.8,14.8,0,0,0-3.37-9.6,10.73,10.73,0,0,0-8.73-4.16,11,11,0,0,0-8.94,4.27,15.36,15.36,0,0,0,0,19.05,11.44,11.44,0,0,0,17.81,0A14.74,14.74,0,0,0,663.94,169Z"/><path class="cls-2" d="M740.42,160c0,1.79-1,2.68-3,2.68-.87,0-2.14-.06-3.82-.17s-2.92-.18-3.75-.18q-5.7,0-7.77,1.79c-1.37,1.2-2.06,3.6-2.06,7.22q0,3,.1,9t.11,9c0,1.33.09,3.32.27,5.95s.28,4.6.28,5.88c0,1.1-.76,1.72-2.27,1.86-2.2.18-5.57.28-10.11.28a103,103,0,0,1-10.46-.42c-1.51-.18-2.27-.94-2.27-2.27,0-3.66,0-9.16.07-16.47s.07-12.8.07-16.47q0-16.16-3-26.61a5,5,0,0,1-.13-1,1.34,1.34,0,0,1,1-1.37q3.78-.42,11.07-1.52,10.86-2.13,11.21-2.13c.83,0,1.35,1.45,1.58,4.34s.64,4.33,1.24,4.33q-1,0,5.64-3.61a26.46,26.46,0,0,1,12.72-3.61c2.57,0,3.85.55,3.85,1.65a52.29,52.29,0,0,1-.41,5.64c-.27,2.61-.44,4.49-.48,5.64,0,1.33,0,3.09.07,5.29C740.37,157.32,740.42,159.11,740.42,160Z"/><path class="cls-2" d="M849.83,169q0,15.67-9.59,25.44T815,204.2q-15.13,0-24.9-9.63t-9.77-24.76q0-16,9.36-25.89T815,134q15.54,0,25.17,9.73T849.83,169Zm-22.55,0a14.86,14.86,0,0,0-3.37-9.6,10.74,10.74,0,0,0-8.74-4.16,11.06,11.06,0,0,0-8.94,4.27,15.4,15.4,0,0,0,0,19.05,11.44,11.44,0,0,0,17.81,0A14.69,14.69,0,0,0,827.28,169Z"/><path class="cls-2" d="M926.52,200.83a2,2,0,0,1-1.93,2.13c-1.28.18-4.63.28-10,.28a77.18,77.18,0,0,1-10.73-.42c-1.37-.27-2.06-1.21-2.06-2.82,0-2.15.07-5.41.21-9.76s.2-7.64.2-9.84c0-1.69,0-4.23-.14-7.6s-.13-5.9-.13-7.6q0-9.42-8.19-9.42a12,12,0,0,0-6.26,2.34c-2.56,1.74-3.85,3.46-3.85,5.16v37.14a2.25,2.25,0,0,1-2.13,2.54c-1.6.18-4.88.28-9.83.28a78.81,78.81,0,0,1-10.46-.42c-1.42-.23-2.13-1-2.13-2.27q0-5.36.07-16.16t.07-16.23q0-17.13-2.68-26.89a4.45,4.45,0,0,1-.14-1,1.5,1.5,0,0,1,1-1.51q4.33-.48,11.55-1.52,10.93-2.13,12.31-2.13c.51,0,.9,1.55,1.17,4.64s.67,4.64,1.17,4.64q-.75,0,7.4-4.78t14.27-4.78q8.73,0,14.58,4.13a15.43,15.43,0,0,1,6.53,13.21v21.93c0,3,0,7.44.07,13.38S926.52,197.85,926.52,200.83Z"/><path class="cls-2" d="M1001,165.48q0,6.95-4.47,7.91-.76.13-14.24,1.51-8.12.9-24.21,2.13c.65,3,2.59,5.25,5.85,6.81a20.56,20.56,0,0,0,9.08,1.93,26,26,0,0,0,12.31-3.3l5.23-3.31c1,.46,2.57,2.8,4.85,7s3.4,6.9,3.4,8c0,.32-.34.85-1,1.58q-8.4,9-26.07,9-16.37,0-26.41-9.56Q935,185.56,935,169.33q0-15.83,9.21-25.93,9.49-10.46,25.17-10.45a29.85,29.85,0,0,1,22.42,9.63A32,32,0,0,1,1001,165.48Zm-24.07-4.2a10.61,10.61,0,0,0-3-7.49,9.54,9.54,0,0,0-7.22-3.24,8.68,8.68,0,0,0-7.15,3.65,12.54,12.54,0,0,0-2.61,7.91,1.67,1.67,0,0,0,1.92,1.86,120.21,120.21,0,0,0,15.82-1.59C976.17,162.16,976.93,161.79,976.93,161.28Z"/></g></g></svg>