<svg xmlns="http://www.w3.org/2000/svg" viewBox="0 0 122.23 122.23"><defs><style>.cls-1{fill:#fff;}.cls-2{fill:#17293a;}</style></defs><g id="Layer_2" data-name="Layer 2"><g id="Layer_1-2" data-name="Layer 1"><path class="cls-1" d="M61.11,0a61.12,61.12,0,1,0,61.12,61.11A61.19,61.19,0,0,0,61.11,0Z"/><path class="cls-2" d="M49.87,49.11a7.54,7.54,0,1,1-7.54-7.53A7.54,7.54,0,0,1,49.87,49.11Zm30.9-7.53a7.54,7.54,0,1,0,7.54,7.53A7.54,7.54,0,0,0,80.77,41.58Zm.64,37.9a3.77,3.77,0,1,0-5.33-5.33,19.22,19.22,0,0,1-27.18,0,3.77,3.77,0,1,0-5.33,5.33,26.75,26.75,0,0,0,37.84,0Z"/></g></g></svg>