<svg xmlns="http://www.w3.org/2000/svg" viewBox="0 0 20.97 17"><defs><style>.cls-1{fill:#fff;}</style></defs><g id="Layer_2" data-name="Layer 2"><g id="Layer_1-2" data-name="Layer 1"><path class="cls-1" d="M21,9.65v6.49a.79.79,0,0,1-1.1.8,16.42,16.42,0,0,0-5.78-.77,9,9,0,0,0-3.27.75.74.74,0,0,1-.65,0,9.94,9.94,0,0,0-4.27-.78A17.41,17.41,0,0,0,1,17a.77.77,0,0,1-1-.75V3.08a.77.77,0,0,1,.81-.8H2c.11,0,.13,0,.13-.13V1c0-.56.23-.84.78-.89A9.81,9.81,0,0,1,8.15.84,6.55,6.55,0,0,1,10.4,2.53c0,.06.08.1.16,0A7.25,7.25,0,0,1,14.8.2,10.74,10.74,0,0,1,18.1.07a.76.76,0,0,1,.7.8c0,.42,0,.85,0,1.28,0,.1,0,.13.13.13h1.21a.78.78,0,0,1,.83.83ZM3.71,6.89v5.16c0,.13,0,.18.17.18A9.67,9.67,0,0,1,6,12.38a7.75,7.75,0,0,1,3.61,1.56l.11.08a.89.89,0,0,0,0-.14q0-4.77,0-9.53a.53.53,0,0,0-.08-.27A4.83,4.83,0,0,0,7.71,2.35a8,8,0,0,0-3.89-.8c-.13,0-.11.08-.11.16Zm13.55,0V1.72c0-.13,0-.16-.16-.17A8.79,8.79,0,0,0,14.18,2a5.14,5.14,0,0,0-2.85,2.12.51.51,0,0,0-.07.24v9.56a.69.69,0,0,0,0,.13l.1-.07A6.88,6.88,0,0,1,13,13a9.58,9.58,0,0,1,4.12-.76c.14,0,.18,0,.18-.18Zm2.16,2.62V4.24c0-.13,0-.32,0-.38s-.26,0-.39,0-.19,0-.19.2q0,4.47,0,8.94a.85.85,0,0,1,0,.16.77.77,0,0,1-.84.7,9.37,9.37,0,0,0-2.48.05,7,7,0,0,0-2.35.76l-.07,0h.09c.33,0,.66-.07,1-.09a17.79,17.79,0,0,1,5.09.54c.14,0,.18,0,.18-.13C19.41,13.18,19.42,11.34,19.42,9.51ZM1.55,9.5V15c0,.19,0,.19.18.15a17.34,17.34,0,0,1,4.91-.54c.39,0,.77.06,1.16.09h.08l-.06-.06c-.16-.08-.32-.17-.49-.24a8.72,8.72,0,0,0-4-.59,3,3,0,0,1-.42,0A.77.77,0,0,1,2.16,13V4.27c0-.14,0-.34,0-.4s-.27,0-.42,0-.16,0-.16.17Z"/></g></g></svg>